<svg id="visual" viewBox="0 0 540 960" width="540" height="960" xmlns="http://www.w3.org/2000/svg" xmlns:xlink="http://www.w3.org/1999/xlink" version="1.1"><path d="M0 155L8.2 145.3C16.3 135.7 32.7 116.3 49 116.3C65.3 116.3 81.7 135.7 98 137.3C114.3 139 130.7 123 147 111.7C163.3 100.3 179.7 93.7 196 87.2C212.3 80.7 228.7 74.3 245.2 72.8C261.7 71.3 278.3 74.7 294.8 97.2C311.3 119.7 327.7 161.3 344 162.8C360.3 164.3 376.7 125.7 393 111.2C409.3 96.7 425.7 106.3 442 108C458.3 109.7 474.7 103.3 491 101.8C507.3 100.3 523.7 103.7 531.8 105.3L540 107L540 0L531.8 0C523.7 0 507.3 0 491 0C474.7 0 458.3 0 442 0C425.7 0 409.3 0 393 0C376.7 0 360.3 0 344 0C327.7 0 311.3 0 294.8 0C278.3 0 261.7 0 245.2 0C228.7 0 212.3 0 196 0C179.7 0 163.3 0 147 0C130.7 0 114.3 0 98 0C81.7 0 65.3 0 49 0C32.7 0 16.3 0 8.2 0L0 0Z" fill="#6198ff"></path><path d="M0 395L8.2 375.7C16.3 356.3 32.7 317.7 49 301.7C65.3 285.7 81.7 292.3 98 300.3C114.3 308.3 130.7 317.7 147 319.2C163.3 320.7 179.7 314.3 196 309.7C212.3 305 228.7 302 245.2 300.5C261.7 299 278.3 299 294.8 310.2C311.3 321.3 327.7 343.7 344 329.2C360.3 314.7 376.7 263.3 393 258.5C409.3 253.7 425.7 295.3 442 314.5C458.3 333.7 474.7 330.3 491 306.3C507.3 282.3 523.7 237.7 531.8 215.3L540 193L540 105L531.8 103.3C523.7 101.7 507.3 98.3 491 99.8C474.7 101.3 458.3 107.7 442 106C425.7 104.3 409.3 94.7 393 109.2C376.7 123.7 360.3 162.3 344 160.8C327.7 159.3 311.3 117.7 294.8 95.2C278.3 72.7 261.7 69.3 245.2 70.8C228.7 72.3 212.3 78.7 196 85.2C179.7 91.7 163.3 98.3 147 109.7C130.7 121 114.3 137 98 135.3C81.7 133.7 65.3 114.3 49 114.3C32.7 114.3 16.3 133.7 8.2 143.3L0 153Z" fill="#3c80ff"></path><path d="M0 654L8.2 634.8C16.3 615.7 32.7 577.3 49 586.8C65.3 596.3 81.7 653.7 98 653.7C114.3 653.7 130.7 596.3 147 567.7C163.3 539 179.7 539 196 531C212.3 523 228.7 507 245.2 513.3C261.7 519.7 278.3 548.3 294.8 572.3C311.3 596.3 327.7 615.7 344 625.3C360.3 635 376.7 635 393 633.3C409.3 631.7 425.7 628.3 442 617C458.3 605.7 474.7 586.3 491 575.2C507.3 564 523.7 561 531.8 559.5L540 558L540 191L531.8 213.3C523.7 235.7 507.3 280.3 491 304.3C474.7 328.3 458.3 331.7 442 312.5C425.7 293.3 409.3 251.7 393 256.5C376.7 261.3 360.3 312.7 344 327.2C327.7 341.7 311.3 319.3 294.8 308.2C278.3 297 261.7 297 245.2 298.5C228.7 300 212.3 303 196 307.7C179.7 312.3 163.3 318.7 147 317.2C130.7 315.7 114.3 306.3 98 298.3C81.7 290.3 65.3 283.7 49 299.7C32.7 315.7 16.3 354.3 8.2 373.7L0 393Z" fill="#0066ff"></path><path d="M0 903L8.2 885.5C16.3 868 32.7 833 49 826.7C65.3 820.3 81.7 842.7 98 852.2C114.3 861.7 130.7 858.3 147 853.5C163.3 848.7 179.7 842.3 196 832.8C212.3 823.3 228.7 810.7 245.2 810.7C261.7 810.7 278.3 823.3 294.8 834.5C311.3 845.7 327.7 855.3 344 855.3C360.3 855.3 376.7 845.7 393 839.3C409.3 833 425.7 830 442 834.8C458.3 839.7 474.7 852.3 491 853.8C507.3 855.3 523.7 845.7 531.8 840.8L540 836L540 556L531.8 557.5C523.7 559 507.3 562 491 573.2C474.7 584.3 458.3 603.7 442 615C425.7 626.3 409.3 629.7 393 631.3C376.7 633 360.3 633 344 623.3C327.7 613.7 311.3 594.3 294.8 570.3C278.3 546.3 261.7 517.7 245.2 511.3C228.7 505 212.3 521 196 529C179.7 537 163.3 537 147 565.7C130.7 594.3 114.3 651.7 98 651.7C81.7 651.7 65.3 594.3 49 584.8C32.7 575.3 16.3 613.7 8.2 632.8L0 652Z" fill="#0059dd"></path><path d="M0 961L8.2 961C16.3 961 32.7 961 49 961C65.3 961 81.7 961 98 961C114.3 961 130.7 961 147 961C163.3 961 179.7 961 196 961C212.3 961 228.7 961 245.2 961C261.7 961 278.3 961 294.8 961C311.3 961 327.7 961 344 961C360.3 961 376.7 961 393 961C409.3 961 425.7 961 442 961C458.3 961 474.7 961 491 961C507.3 961 523.7 961 531.8 961L540 961L540 834L531.8 838.8C523.7 843.7 507.3 853.3 491 851.8C474.7 850.3 458.3 837.7 442 832.8C425.7 828 409.3 831 393 837.3C376.7 843.7 360.3 853.3 344 853.3C327.7 853.3 311.3 843.7 294.8 832.5C278.3 821.3 261.7 808.7 245.2 808.7C228.7 808.7 212.3 821.3 196 830.8C179.7 840.3 163.3 846.7 147 851.5C130.7 856.3 114.3 859.7 98 850.2C81.7 840.7 65.3 818.3 49 824.7C32.7 831 16.3 866 8.2 883.5L0 901Z" fill="#004cbb"></path></svg>