<svg id="visual" viewBox="0 0 540 960" width="540" height="960" xmlns="http://www.w3.org/2000/svg" xmlns:xlink="http://www.w3.org/1999/xlink" version="1.1"><g stroke-width="1" stroke-linejoin="bevel"><path d="M243 556L337 751L540 689Z" fill="#15384f" stroke="#15384f"></path><path d="M540 689L540 411L243 556Z" fill="#19435d" stroke="#19435d"></path><path d="M0 960L369 960L337 751Z" fill="#0c2435" stroke="#0c2435"></path><path d="M337 751L540 960L540 689Z" fill="#19435d" stroke="#19435d"></path><path d="M369 960L540 960L337 751Z" fill="#297ea6" stroke="#297ea6"></path><path d="M0 206L0 494L243 556Z" fill="#19435d" stroke="#19435d"></path><path d="M243 556L0 745L337 751Z" fill="#19435d" stroke="#19435d"></path><path d="M0 494L0 745L243 556Z" fill="#00101c" stroke="#00101c"></path><path d="M540 411L359 164L243 556Z" fill="#081a28" stroke="#081a28"></path><path d="M540 411L540 180L359 164Z" fill="#15384f" stroke="#15384f"></path><path d="M0 745L0 960L337 751Z" fill="#15384f" stroke="#15384f"></path><path d="M359 164L0 206L243 556Z" fill="#277297" stroke="#277297"></path><path d="M540 0L362 0L359 164Z" fill="#112e42" stroke="#112e42"></path><path d="M359 164L0 0L0 206Z" fill="#297ea6" stroke="#297ea6"></path><path d="M540 180L540 0L359 164Z" fill="#19435d" stroke="#19435d"></path><path d="M362 0L0 0L359 164Z" fill="#1d4e6b" stroke="#1d4e6b"></path></g></svg>