<svg id="visual" viewBox="0 0 540 960" width="540" height="960" xmlns="http://www.w3.org/2000/svg" xmlns:xlink="http://www.w3.org/1999/xlink" version="1.1"><rect x="0" y="0" width="540" height="960" fill="#931C1C"></rect><path d="M0 586L77 672L154 603L231 569L309 654L386 613L463 636L540 652L540 961L463 961L386 961L309 961L231 961L154 961L77 961L0 961Z" fill="#f5730a"></path><path d="M0 651L77 720L154 639L231 665L309 708L386 763L463 666L540 667L540 961L463 961L386 961L309 961L231 961L154 961L77 961L0 961Z" fill="#da5b09"></path><path d="M0 782L77 703L154 783L231 771L309 719L386 705L463 817L540 790L540 961L463 961L386 961L309 961L231 961L154 961L77 961L0 961Z" fill="#be4407"></path><path d="M0 816L77 772L154 866L231 801L309 822L386 794L463 776L540 863L540 961L463 961L386 961L309 961L231 961L154 961L77 961L0 961Z" fill="#a32d04"></path><path d="M0 911L77 846L154 886L231 913L309 877L386 871L463 866L540 898L540 961L463 961L386 961L309 961L231 961L154 961L77 961L0 961Z" fill="#871400"></path></svg>